<?xml version="1.0" encoding="UTF-8" standalone="no"?>
<!-- Created with Inkscape (http://www.inkscape.org/) -->

<svg
   width="109.61047mm"
   height="94.642982mm"
   viewBox="0 0 109.61047 94.642982"
   version="1.1"
   id="svg1"
   xml:space="preserve"
   sodipodi:docname="inkscape-bird-black-and-white.svg"
   inkscape:version="1.4.2 (f4327f4, 2025-05-13)"
   xmlns:inkscape="http://www.inkscape.org/namespaces/inkscape"
   xmlns:sodipodi="http://sodipodi.sourceforge.net/DTD/sodipodi-0.dtd"
   xmlns="http://www.w3.org/2000/svg"
   xmlns:svg="http://www.w3.org/2000/svg"><sodipodi:namedview
     id="namedview1"
     pagecolor="#ffffff"
     bordercolor="#000000"
     borderopacity="0.25"
     inkscape:showpageshadow="2"
     inkscape:pageopacity="0.0"
     inkscape:pagecheckerboard="0"
     inkscape:deskcolor="#d1d1d1"
     inkscape:document-units="mm"
     inkscape:zoom="1.6962706"
     inkscape:cx="102.57797"
     inkscape:cy="108.76802"
     inkscape:window-width="2560"
     inkscape:window-height="1369"
     inkscape:window-x="1042"
     inkscape:window-y="63"
     inkscape:window-maximized="1"
     inkscape:current-layer="layer1" /><defs
     id="defs1"><rect
       x="135.59157"
       y="254.67635"
       width="470.44382"
       height="573.02179"
       id="rect20" /><rect
       x="70.743431"
       y="245.2439"
       width="431.53491"
       height="377.29828"
       id="rect19" /><clipPath
       clipPathUnits="userSpaceOnUse"
       id="clipPath38"><path
         id="path39"
         style="fill:#ff0000;fill-opacity:1;fill-rule:nonzero;stroke:none;stroke-width:0.264583"
         d="m 116.89312,104.71247 v 25.17779 h 31.15727 v -25.17779 h -0.95859 c -0.17728,0.15507 -0.38728,0.32181 -0.63304,0.50126 -0.41415,0.30241 -0.83516,0.59527 -1.24747,0.90021 -0.39782,0.29768 -0.77723,0.61938 -1.16427,0.93069 -0.31057,0.25501 -0.63134,0.49622 -0.95756,0.7307 -0.34371,0.23305 -0.7027,0.44307 -1.0666,0.64286 -0.25521,0.12512 -0.50638,0.25694 -0.75758,0.38964 -0.26329,0.14938 -0.52552,0.30096 -0.78652,0.45423 -0.23834,0.14026 -0.46997,0.29118 -0.70383,0.43874 -0.19132,0.10867 -0.36579,0.24255 -0.54002,0.3762 -0.20815,0.1637 -0.42543,0.31253 -0.62528,0.48731 -0.20269,0.15709 -0.39984,0.32108 -0.60307,0.47749 -0.20492,0.14991 -0.41199,0.29799 -0.63045,0.42788 -0.2326,0.13863 -0.34264,0.19164 -0.23099,0.13694 -0.25085,0.14825 -0.0507,0.0318 -0.3142,0.17777 -7.9e-4,5.3e-4 -0.001,0.001 -0.002,0.002 -0.004,0.003 -0.009,0.005 -0.015,0.009 0.005,-0.003 0.009,-0.004 0.0109,-0.005 -0.0199,0.012 -0.0371,0.0224 -0.0522,0.0315 -0.002,0.001 -0.004,0.002 -0.006,0.004 0.003,-0.001 0.006,-0.002 0.007,-0.002 h 5.3e-4 5.3e-4 v 5.3e-4 5.3e-4 5.3e-4 c -0.0106,0.0136 -0.11962,0.0824 -0.15864,0.11265 -5.7203,4.42637 -10.27156,-0.7453 -5.7857,-5.27823 0.31459,-0.40835 0.69079,-0.81876 1.13378,-1.22628 0.0326,-0.0299 0.0651,-0.0599 0.0977,-0.0899 0.23162,-0.21441 0.46723,-0.42431 0.7059,-0.63097 h -0.2651 c -0.1323,0.0962 -0.27459,0.20997 -0.42736,0.34262 -0.0376,0.0355 -0.0753,0.0713 -0.11266,0.10697 -0.0264,0.0224 -0.35882,0.32841 -0.23822,0.21342 0.12272,-0.11703 0.23963,-0.2238 0.35088,-0.32039 0.12248,-0.11591 0.24581,-0.23049 0.37155,-0.34262 z m 19.92075,7.08226 c -0.003,0.002 -0.007,0.004 -0.0114,0.006 -0.004,0.003 -0.008,0.006 -0.0124,0.009 0.009,-0.005 0.0165,-0.0106 0.0238,-0.015 z m -0.0114,0.006 c 0.002,-0.002 0.004,-0.003 0.007,-0.005 -0.0135,0.007 -0.0277,0.0155 -0.0434,0.0243 -0.011,0.006 0.0151,-0.008 0.0367,-0.0196 z m 0.007,-0.005 c 0.008,-0.004 0.0148,-0.008 0.0217,-0.0119 0.15158,-0.10582 0.0768,-0.0554 -0.0217,0.0119 z" /></clipPath><clipPath
       clipPathUnits="userSpaceOnUse"
       id="clipPath45"><path
         id="path46"
         style="fill:#ff0000;fill-opacity:1;fill-rule:nonzero;stroke:none;stroke-width:0.264583"
         d="m 86.886169,105.29642 v 25.17779 h 31.157271 v -13.01833 c -1.33192,0.0801 -2.97297,-0.49317 -4.6576,-2.01383 -0.20108,-0.18151 -0.40339,-0.36151 -0.60668,-0.54054 -0.34566,-0.32276 -0.68327,-0.6545 -1.01906,-0.98753 -0.26076,-0.26409 -0.52017,-0.52908 -0.77928,-0.79479 -0.27582,-0.27935 -0.55331,-0.55744 -0.81752,-0.84801 -0.31731,-0.33736 -0.63154,-0.67712 -0.94671,-1.01647 -0.21727,-0.24359 -0.46125,-0.46234 -0.67748,-0.70694 -0.18444,-0.17576 -0.38121,-0.33806 -0.58704,-0.48834 -0.32407,-0.25349 -0.71483,-0.40624 -1.05472,-0.63562 -0.57121,-0.35939 -1.12579,-0.74646 -1.59938,-1.23145 -0.49013,-0.48632 -0.96875,-0.98458 -1.41594,-1.51102 -0.37905,-0.45242 -0.75379,-0.9098 -1.10432,-1.38492 z m 29.139821,0 c 0.46073,0.53318 0.91712,1.07013 1.38493,1.5968 0.21023,0.23266 0.42074,0.46463 0.63252,0.69556 v -2.29236 z m 2.0159,3.85506 c -10e-4,1.3e-4 -0.003,2.7e-4 -0.004,5.3e-4 0.002,0.002 0.004,0.004 0.006,0.006 v -0.004 c -5.3e-4,-7.9e-4 -0.001,-0.002 -0.002,-0.003 z" /></clipPath></defs><g
     inkscape:label="Layer 1"
     inkscape:groupmode="layer"
     id="layer1"
     transform="translate(-45.570073,-86.167163)"><text
       xml:space="preserve"
       style="font-size:50.8px;font-family:'Cascadia Mono';-inkscape-font-specification:'Cascadia Mono';text-align:start;writing-mode:lr-tb;direction:ltr;text-anchor:start;fill:#1a1a1a;stroke:#000000;stroke-width:0;stroke-opacity:0"
       x="73.891373"
       y="-74.814941"
       id="text20"
       transform="rotate(89.938433)"
       inkscape:label="top-head"
       inkscape:export-filename="black-and-white-bird-png.png"
       inkscape:export-xdpi="96"
       inkscape:export-ydpi="96"><tspan
         sodipodi:role="line"
         id="tspan20"
         style="stroke-width:0"
         x="73.891373"
         y="-74.814941">|</tspan></text><text
       xml:space="preserve"
       style="font-size:43.5219px;font-family:'Cascadia Mono';-inkscape-font-specification:'Cascadia Mono';text-align:start;writing-mode:lr-tb;direction:ltr;text-anchor:start;fill:#1a1a1a;stroke:#000000;stroke-width:0;stroke-opacity:0"
       x="85.272232"
       y="140.86003"
       id="text21"
       transform="scale(1.1764007,0.8500505)"
       inkscape:label="back-head"><tspan
         sodipodi:role="line"
         id="tspan21"
         style="stroke-width:0"
         x="85.272232"
         y="140.86003">|</tspan></text><text
       xml:space="preserve"
       style="font-size:35.819px;font-family:'Cascadia Mono';-inkscape-font-specification:'Cascadia Mono';text-align:start;writing-mode:lr-tb;direction:ltr;text-anchor:start;fill:#1a1a1a;stroke:#000000;stroke-width:0;stroke-opacity:0"
       x="-92.564117"
       y="195.95592"
       id="text21-03"
       transform="matrix(0.22267475,-1.1091405,0.85941011,0.21014245,0,0)"
       inkscape:label="back-feathers"><tspan
         sodipodi:role="line"
         id="tspan21-8"
         style="stroke-width:0"
         x="-92.564117"
         y="195.95592">|</tspan></text><text
       xml:space="preserve"
       style="font-size:59.0549px;font-family:'Cascadia Mono';-inkscape-font-specification:'Cascadia Mono';text-align:start;writing-mode:lr-tb;direction:ltr;text-anchor:start;fill:#1a1a1a;stroke:#000000;stroke-width:0;stroke-opacity:0"
       x="213.55283"
       y="14.27543"
       id="text21-8"
       transform="matrix(0.51940555,0.68570241,-0.92666254,0.70192792,0,0)"
       inkscape:label="bottom-right"><tspan
         sodipodi:role="line"
         id="tspan21-1"
         style="stroke-width:0"
         x="213.55283"
         y="14.27543">|</tspan></text><text
       xml:space="preserve"
       style="font-size:32.8203px;font-family:'Cascadia Mono';-inkscape-font-specification:'Cascadia Mono';text-align:start;writing-mode:lr-tb;direction:ltr;text-anchor:start;fill:#1a1a1a;stroke:#000000;stroke-width:0;stroke-opacity:0"
       x="35.427032"
       y="162.47173"
       id="text21-0"
       transform="scale(1.5478192,0.64607029)"
       inkscape:label="front-head"><tspan
         sodipodi:role="line"
         id="tspan21-6"
         style="stroke-width:0"
         x="35.427032"
         y="162.47173">|</tspan></text><text
       xml:space="preserve"
       style="font-size:32.2282px;font-family:'Cascadia Mono';-inkscape-font-specification:'Cascadia Mono';text-align:start;writing-mode:lr-tb;direction:ltr;text-anchor:start;fill:#1a1a1a;stroke:#000000;stroke-width:0;stroke-opacity:0"
       x="35.997791"
       y="230.77008"
       id="text21-0-6"
       transform="scale(1.5762597,0.63441322)"
       inkscape:label="front-chest"><tspan
         sodipodi:role="line"
         id="tspan21-6-1"
         style="stroke-width:0"
         x="35.997791"
         y="230.77008">|</tspan></text><text
       xml:space="preserve"
       style="font-size:45.8059px;font-family:'Cascadia Mono';-inkscape-font-specification:'Cascadia Mono';text-align:start;writing-mode:lr-tb;direction:ltr;text-anchor:start;fill:#1a1a1a;stroke:#000000;stroke-width:0;stroke-opacity:0"
       x="-70.559143"
       y="207.91998"
       id="text21-0-6-7"
       transform="matrix(0.75013056,-0.82539331,0.67196029,0.59372128,0,0)"
       inkscape:label="bottom-left"><tspan
         sodipodi:role="line"
         id="tspan21-6-1-3"
         style="stroke-width:0"
         x="-70.559143"
         y="207.91998">|</tspan></text><text
       xml:space="preserve"
       style="font-size:37.3269px;font-family:'Cascadia Mono';-inkscape-font-specification:'Cascadia Mono';text-align:start;writing-mode:lr-tb;direction:ltr;text-anchor:start;fill:#1a1a1a;stroke:#000000;stroke-width:0;stroke-opacity:0"
       x="85.774193"
       y="-5.1933007"
       id="text21-0-9"
       transform="matrix(0.4834674,1.2359441,-0.66729213,0.36251507,0,0)"
       inkscape:label="front-beak"><tspan
         sodipodi:role="line"
         id="tspan21-6-6"
         style="stroke-width:0"
         x="85.774193"
         y="-5.1933007">|</tspan></text><text
       xml:space="preserve"
       style="font-size:51.4929px;font-family:'Cascadia Mono';-inkscape-font-specification:'Cascadia Mono';text-align:start;writing-mode:lr-tb;direction:ltr;text-anchor:start;fill:#1a1a1a;stroke:#000000;stroke-width:0;stroke-opacity:0"
       x="-136.26398"
       y="89.535812"
       id="text21-0-9-2"
       transform="matrix(-0.00564049,-0.98653915,1.0136376,-0.00121169,0,0)"
       inkscape:label="bottom-upper-beak"><tspan
         sodipodi:role="line"
         id="tspan21-6-6-9"
         style="stroke-width:0"
         x="-136.26398"
         y="89.535812">|</tspan></text><text
       xml:space="preserve"
       style="font-size:41.5463px;font-family:'Cascadia Mono';-inkscape-font-specification:'Cascadia Mono';text-align:start;writing-mode:lr-tb;direction:ltr;text-anchor:start;fill:#1a1a1a;stroke:#000000;stroke-width:0;stroke-opacity:0"
       x="-63.887791"
       y="169.88423"
       id="text21-0-9-2-8"
       transform="matrix(0.52834974,-1.124439,0.72551554,0.34863654,0,0)"
       inkscape:label="top-upper-mouth"><tspan
         sodipodi:role="line"
         id="tspan21-6-6-9-4"
         style="stroke-width:0"
         x="-63.887791"
         y="169.88423">|</tspan></text><text
       xml:space="preserve"
       style="font-size:53.7157px;font-family:'Cascadia Mono';-inkscape-font-specification:'Cascadia Mono';text-align:start;writing-mode:lr-tb;direction:ltr;text-anchor:start;fill:#1a1a1a;stroke:#000000;stroke-width:0;stroke-opacity:0"
       x="90.241486"
       y="80.002388"
       id="text23-3"
       transform="scale(0.76489997,1.3073605)"
       inkscape:label="eye-1"><tspan
         sodipodi:role="line"
         id="tspan23-7"
         style="stroke-width:0"
         x="90.241486"
         y="80.002388">.</tspan></text><text
       xml:space="preserve"
       style="font-size:53.7157px;font-family:'Cascadia Mono';-inkscape-font-specification:'Cascadia Mono';text-align:start;writing-mode:lr-tb;direction:ltr;text-anchor:start;fill:#1a1a1a;stroke:#000000;stroke-width:0;stroke-opacity:0"
       x="109.92724"
       y="84.09201"
       id="text23-3-8"
       transform="scale(0.76489997,1.3073605)"
       inkscape:label="eye-2"><tspan
         sodipodi:role="line"
         id="tspan23-7-8"
         style="stroke-width:0"
         x="109.92724"
         y="84.09201">.</tspan></text><text
       xml:space="preserve"
       style="font-size:50.8px;font-family:'Cascadia Mono';-inkscape-font-specification:'Cascadia Mono';text-align:start;writing-mode:lr-tb;direction:ltr;text-anchor:start;fill:#1a1a1a;stroke:#000000;stroke-width:0;stroke-opacity:0"
       x="61.143936"
       y="123.84767"
       id="text24"><tspan
         sodipodi:role="line"
         id="tspan24"
         style="stroke-width:0"
         x="61.143936"
         y="123.84767" /></text><text
       xml:space="preserve"
       style="font-size:42.1768px;font-family:'Cascadia Mono';-inkscape-font-specification:'Cascadia Mono';text-align:start;writing-mode:lr-tb;direction:ltr;text-anchor:start;fill:#1a1a1a;stroke:#000000;stroke-width:0;stroke-opacity:0"
       x="-184.17827"
       y="24.235929"
       id="text25"
       transform="matrix(-0.69638698,-0.71435449,0.77029475,-0.64581404,0,0)"
       inkscape:label="back-wing"><tspan
         sodipodi:role="line"
         id="tspan25"
         style="stroke-width:0"
         x="-184.17827"
         y="24.235929">v</tspan></text><text
       xml:space="preserve"
       style="font-size:53.5379px;font-family:'Cascadia Mono';-inkscape-font-specification:'Cascadia Mono';text-align:start;writing-mode:lr-tb;direction:ltr;text-anchor:start;fill:#1a1a1a;stroke:#000000;stroke-width:0;stroke-opacity:0"
       x="-189.08862"
       y="9.5185843"
       id="text25-0"
       transform="matrix(-0.67828215,-0.73342216,0.75026846,-0.66305221,0,0)"
       inkscape:label="front-wing"><tspan
         sodipodi:role="line"
         id="tspan25-3"
         style="stroke-width:0"
         x="-189.08862"
         y="9.5185843">v</tspan></text><text
       xml:space="preserve"
       style="font-size:28.1213px;font-family:'Cascadia Mono';-inkscape-font-specification:'Cascadia Mono';text-align:start;writing-mode:lr-tb;direction:ltr;text-anchor:start;fill:#1a1a1a;stroke:#000000;stroke-width:0;stroke-opacity:0"
       x="41.915726"
       y="322.37033"
       id="text47"
       transform="scale(1.8064637,0.55356772)"
       inkscape:label="left-leg"><tspan
         sodipodi:role="line"
         id="tspan47"
         style="font-size:28.1213px;stroke-width:0"
         x="41.915726"
         y="322.37033">|</tspan></text><text
       xml:space="preserve"
       style="font-size:19.0081px;font-family:'Cascadia Mono';-inkscape-font-specification:'Cascadia Mono';text-align:start;writing-mode:lr-tb;direction:ltr;text-anchor:start;fill:#1a1a1a;stroke:#000000;stroke-width:0;stroke-opacity:0"
       x="61.111656"
       y="-232.07835"
       id="text47-9"
       transform="matrix(-4.2409012e-4,2.6725523,-0.3741741,-3.8336986e-4,0,0)"
       inkscape:label="left-foot"><tspan
         sodipodi:role="line"
         id="tspan47-8"
         style="font-size:19.0081px;stroke-width:0"
         x="61.111656"
         y="-232.07835">|</tspan></text><text
       xml:space="preserve"
       style="font-size:28.0505px;font-family:'Cascadia Mono';-inkscape-font-specification:'Cascadia Mono';text-align:start;writing-mode:lr-tb;direction:ltr;text-anchor:start;fill:#1a1a1a;stroke:#000000;stroke-width:0;stroke-opacity:0"
       x="52.891441"
       y="323.10669"
       id="text47-82"
       transform="scale(1.8110238,0.55217385)"
       inkscape:label="right-leg"><tspan
         sodipodi:role="line"
         id="tspan47-89"
         style="font-size:28.0505px;stroke-width:0"
         x="52.891441"
         y="323.10669">|</tspan></text><text
       xml:space="preserve"
       style="font-size:19.0081px;font-family:'Cascadia Mono';-inkscape-font-specification:'Cascadia Mono';text-align:start;writing-mode:lr-tb;direction:ltr;text-anchor:start;fill:#1a1a1a;stroke:#000000;stroke-width:0;stroke-opacity:0"
       x="61.095745"
       y="-284.87851"
       id="text47-9-0"
       transform="matrix(-4.2409012e-4,2.6725523,-0.3741741,-3.8336986e-4,0,0)"
       inkscape:label="left-foot"><tspan
         sodipodi:role="line"
         id="tspan47-8-7"
         style="font-size:19.0081px;stroke-width:0"
         x="61.095745"
         y="-284.87851">|</tspan></text><text
       xml:space="preserve"
       style="font-size:30.5501px;font-family:'Cascadia Mono';-inkscape-font-specification:'Cascadia Mono';text-align:start;writing-mode:lr-tb;direction:ltr;text-anchor:start;fill:#1a1a1a;stroke:#000000;stroke-width:0;stroke-opacity:0"
       x="75.346649"
       y="59.482391"
       id="text47-8"
       transform="matrix(1.0035517,1.2107452,-0.40944647,0.50247999,0,0)"
       inkscape:label="top-lower-beak"><tspan
         sodipodi:role="line"
         id="tspan47-3"
         style="font-size:30.5501px;stroke-width:0"
         x="75.346649"
         y="59.482391">|</tspan></text><text
       xml:space="preserve"
       style="font-size:40.3839px;font-family:'Cascadia Mono';-inkscape-font-specification:'Cascadia Mono';text-align:start;writing-mode:lr-tb;direction:ltr;text-anchor:start;fill:#1a1a1a;stroke:#000000;stroke-width:0;stroke-opacity:0"
       x="108.66682"
       y="1.4034618"
       id="text47-8-0"
       transform="matrix(0.53399149,1.08914,-0.74174862,0.35980326,0,0)"
       inkscape:label="bottom-lower-beak"><tspan
         sodipodi:role="line"
         id="tspan47-3-7"
         style="font-size:40.3839px;stroke-width:0"
         x="108.66682"
         y="1.4034618">|</tspan></text><path
       style="fill:#ffffff;stroke:#000000;stroke-width:0;stroke-opacity:0"
       d="m 156.98143,273.63939 -48.76405,-43.13371 -0.0194,-33.89953 -0.0195,-33.89953 28.32487,-13.7049 28.32486,-13.70491 h 19.43617 19.43616 l 3.78563,-7.96691 c 2.08208,-4.38179 3.92768,-8.42743 4.10132,-8.99031 0.26336,-0.85371 -8.86642,-5.42221 -55.06088,-27.552189 l -55.3766,-26.528786 -0.0229,-22.549468 -0.0229,-22.549468 h 76.34395 76.34395 v 57.99336 57.993361 l -34.14757,13.75736 c -28.64059,11.53872 -34.06158,13.90391 -33.61437,14.66604 0.29325,0.49977 3.79221,4.32451 7.77547,8.49943 l 7.24227,7.59075 42.02104,-18.44112 c 24.17946,-10.61127 42.22603,-18.21456 42.50382,-17.9075 0.26553,0.29349 -9.83551,18.01798 -22.44677,39.38775 -12.61125,21.36978 -22.85501,39.05669 -22.76391,39.30425 0.26212,0.71232 14.7598,16.46095 15.15342,16.46095 0.19457,0 10.13554,-17.84061 22.09104,-39.6458 11.9555,-21.80518 21.8331,-39.75506 21.95021,-39.88861 0.28677,-0.32701 85.87039,20.59709 86.45614,21.13741 0.422,0.38928 -178.04508,136.03659 -179.59219,136.50248 -0.37135,0.11182 -22.619,-19.20686 -49.43922,-42.9304 z M 195.6634,91.119306 c 1.17314,-0.725043 2.67023,-2.565369 3.74368,-4.60199 6.7494,-12.805485 1.75979,-32.575451 -8.22151,-32.575451 -4.52038,0 -7.71408,2.928941 -10.05715,9.223434 -1.87077,5.025678 -1.81597,15.533736 0.10664,20.448695 3.16653,8.094906 8.76353,11.006351 14.42834,7.505312 z M 138.89418,70.86944 c 4.70366,-3.164836 7.65217,-13.481691 6.40944,-22.426662 -0.67208,-4.837464 -3.39514,-10.94816 -5.67948,-12.745019 -5.27553,-4.149736 -11.3674,-1.746544 -14.85562,5.860419 -2.15481,4.699117 -2.53056,14.655971 -0.77138,20.440694 2.0955,6.89068 5.40154,10.207652 10.18081,10.214495 1.85407,0.0027 3.34732,-0.422861 4.71623,-1.343927 z"
       id="path58"
       transform="matrix(0.26458333,0,0,0.26458333,45.570073,86.167163)" /><path
       style="fill:#ffffff;stroke:#000000;stroke-width:0;stroke-opacity:0"
       d="m 197.72217,309.61083 c -4.41282,-3.95047 -26.3597,-23.36523 -48.77084,-43.14391 l -40.74754,-35.96124 -0.0126,-33.91151 -0.0127,-33.91151 28.03566,-13.54554 28.03566,-13.54555 19.82146,-0.29476 19.82146,-0.29476 3.9816,-8.54817 3.9816,-8.54816 -2.10749,-1.28101 c -1.15913,-0.70456 -26.06957,-12.77516 -55.35653,-26.823554 l -53.24903,-25.542541 -0.0194,-22.549468 -0.0194,-22.549468 h 76.34395 76.34395 v 57.997065 57.997066 l -24.90758,10.05125 c -40.44812,16.32252 -42.8882,17.34092 -42.8882,17.90007 0,0.29389 3.35334,4.11964 7.45187,8.50165 5.32983,5.69849 7.72209,7.86704 8.40078,7.61523 0.5219,-0.19363 19.4644,-8.47305 42.09443,-18.3987 23.62622,-10.36258 41.34934,-17.8192 41.62421,-17.51249 0.26328,0.29379 -9.83191,18.03536 -22.43375,39.42573 -12.60185,21.39037 -22.84353,39.06953 -22.7593,39.28704 0.25405,0.65599 14.81029,16.44096 15.15821,16.43774 0.17748,-0.002 10.13834,-17.90487 22.13524,-39.78496 11.99691,-21.88009 22.0626,-39.78568 22.36821,-39.7902 1.15071,-0.017 85.53589,20.76939 85.97657,21.17841 0.4207,0.39048 -177.96358,135.99568 -179.57093,136.50729 -0.38298,0.1219 -4.30682,-3.01057 -8.71964,-6.96104 z m -3.8865,-217.556555 c 8.55363,-3.573941 11.57594,-22.482027 5.2421,-32.795532 -4.13351,-6.730665 -11.09954,-7.203904 -15.33855,-1.042029 -3.02157,4.392179 -3.85135,7.660362 -3.85406,15.179594 -0.003,7.690772 1.07713,11.478688 4.43214,15.546299 2.9563,3.58421 6.00335,4.580331 9.51837,3.111668 z M 138.66075,71.060378 c 2.37847,-1.450233 5.24346,-6.403849 6.15014,-10.633698 0.95732,-4.466106 0.8166,-12.197402 -0.29118,-15.997018 -1.98527,-6.80937 -5.82647,-10.701362 -10.49806,-10.63689 -6.5761,0.09076 -11.10494,7.947376 -11.10494,19.2648 0,8.565146 2.53269,15.18535 6.91493,18.074971 2.18656,1.4418 6.40263,1.40734 8.82911,-0.07216 z"
       id="path61"
       transform="matrix(0.26458333,0,0,0.26458333,45.570073,86.167163)" /><path
       style="fill:#ffffff;stroke:#000000;stroke-width:0;stroke-opacity:0"
       d="m 300.03496,131.31749 c -4.13114,-4.45831 -8.09299,-8.72167 -8.80411,-9.47414 l -1.29295,-1.36812 -8.01549,3.28409 c -4.40852,1.80625 -8.16409,3.28409 -8.3457,3.28409 -0.18162,0 -0.33021,-2.59804 -0.33021,-5.77343 v -5.77343 l 32.79816,-13.66678 c 18.039,-7.516723 33.00618,-13.538217 33.26041,-13.381093 0.48432,0.299324 -30.69444,50.956133 -31.37029,50.968003 -0.21377,0.004 -3.76869,-3.64088 -7.89982,-8.09919 z"
       id="path62"
       transform="matrix(0.26458333,0,0,0.26458333,45.570073,86.167163)" /><path
       style="fill:#ffffff;stroke:#000000;stroke-width:0;stroke-opacity:0"
       d="m 42.853017,116.12319 c 0.169788,-0.16979 12.967085,-7.18626 28.438439,-15.59217 l 28.129735,-15.283457 31.574219,15.150017 31.57422,15.15002 -11.42568,0.36376 c -14.16106,0.45085 -108.714908,0.6358 -108.290933,0.21183 z"
       id="path63"
       transform="matrix(0.26458333,0,0,0.26458333,45.570073,86.167163)" /><path
       style="fill:#ffffff;stroke:#000000;stroke-width:0;stroke-opacity:0"
       d="m 83.831147,152.77541 c 0.259292,-0.43823 3.52225,-4.54839 7.251019,-9.13368 l 6.779578,-8.3369 11.741446,-0.004 c 6.45779,-0.002 11.63091,0.0994 11.49581,0.22571 -0.37755,0.35309 -37.07254,18.04567 -37.427305,18.04567 -0.171593,0 -0.09984,-0.35856 0.159452,-0.79679 z"
       id="path64"
       transform="matrix(0.26458333,0,0,0.26458333,45.570073,86.167163)" /></g></svg>
