<?xml version="1.0" encoding="UTF-8" standalone="no"?>
<!-- Created with Inkscape (http://www.inkscape.org/) -->

<svg
   width="109.61047mm"
   height="94.642982mm"
   viewBox="0 0 109.61047 94.642982"
   version="1.1"
   id="svg1"
   xml:space="preserve"
   sodipodi:docname="svg-bird.svg"
   inkscape:version="1.4.2 (f4327f4, 2025-05-13)"
   xmlns:inkscape="http://www.inkscape.org/namespaces/inkscape"
   xmlns:sodipodi="http://sodipodi.sourceforge.net/DTD/sodipodi-0.dtd"
   xmlns="http://www.w3.org/2000/svg"
   xmlns:svg="http://www.w3.org/2000/svg"><sodipodi:namedview
     id="namedview1"
     pagecolor="#ffffff"
     bordercolor="#000000"
     borderopacity="0.25"
     inkscape:showpageshadow="2"
     inkscape:pageopacity="0.0"
     inkscape:pagecheckerboard="0"
     inkscape:deskcolor="#d1d1d1"
     inkscape:document-units="mm"
     inkscape:zoom="1.6962706"
     inkscape:cx="102.57797"
     inkscape:cy="108.76802"
     inkscape:window-width="2560"
     inkscape:window-height="1369"
     inkscape:window-x="1042"
     inkscape:window-y="63"
     inkscape:window-maximized="1"
     inkscape:current-layer="layer1" /><defs
     id="defs1"><rect
       x="135.59157"
       y="254.67635"
       width="470.44382"
       height="573.02179"
       id="rect20" /><rect
       x="70.743431"
       y="245.2439"
       width="431.53491"
       height="377.29828"
       id="rect19" /><clipPath
       clipPathUnits="userSpaceOnUse"
       id="clipPath38"><path
         id="path39"
         style="fill:#ff0000;fill-opacity:1;fill-rule:nonzero;stroke:none;stroke-width:0.264583"
         d="m 116.89312,104.71247 v 25.17779 h 31.15727 v -25.17779 h -0.95859 c -0.17728,0.15507 -0.38728,0.32181 -0.63304,0.50126 -0.41415,0.30241 -0.83516,0.59527 -1.24747,0.90021 -0.39782,0.29768 -0.77723,0.61938 -1.16427,0.93069 -0.31057,0.25501 -0.63134,0.49622 -0.95756,0.7307 -0.34371,0.23305 -0.7027,0.44307 -1.0666,0.64286 -0.25521,0.12512 -0.50638,0.25694 -0.75758,0.38964 -0.26329,0.14938 -0.52552,0.30096 -0.78652,0.45423 -0.23834,0.14026 -0.46997,0.29118 -0.70383,0.43874 -0.19132,0.10867 -0.36579,0.24255 -0.54002,0.3762 -0.20815,0.1637 -0.42543,0.31253 -0.62528,0.48731 -0.20269,0.15709 -0.39984,0.32108 -0.60307,0.47749 -0.20492,0.14991 -0.41199,0.29799 -0.63045,0.42788 -0.2326,0.13863 -0.34264,0.19164 -0.23099,0.13694 -0.25085,0.14825 -0.0507,0.0318 -0.3142,0.17777 -7.9e-4,5.3e-4 -0.001,0.001 -0.002,0.002 -0.004,0.003 -0.009,0.005 -0.015,0.009 0.005,-0.003 0.009,-0.004 0.0109,-0.005 -0.0199,0.012 -0.0371,0.0224 -0.0522,0.0315 -0.002,0.001 -0.004,0.002 -0.006,0.004 0.003,-0.001 0.006,-0.002 0.007,-0.002 h 5.3e-4 5.3e-4 v 5.3e-4 5.3e-4 5.3e-4 c -0.0106,0.0136 -0.11962,0.0824 -0.15864,0.11265 -5.7203,4.42637 -10.27156,-0.7453 -5.7857,-5.27823 0.31459,-0.40835 0.69079,-0.81876 1.13378,-1.22628 0.0326,-0.0299 0.0651,-0.0599 0.0977,-0.0899 0.23162,-0.21441 0.46723,-0.42431 0.7059,-0.63097 h -0.2651 c -0.1323,0.0962 -0.27459,0.20997 -0.42736,0.34262 -0.0376,0.0355 -0.0753,0.0713 -0.11266,0.10697 -0.0264,0.0224 -0.35882,0.32841 -0.23822,0.21342 0.12272,-0.11703 0.23963,-0.2238 0.35088,-0.32039 0.12248,-0.11591 0.24581,-0.23049 0.37155,-0.34262 z m 19.92075,7.08226 c -0.003,0.002 -0.007,0.004 -0.0114,0.006 -0.004,0.003 -0.008,0.006 -0.0124,0.009 0.009,-0.005 0.0165,-0.0106 0.0238,-0.015 z m -0.0114,0.006 c 0.002,-0.002 0.004,-0.003 0.007,-0.005 -0.0135,0.007 -0.0277,0.0155 -0.0434,0.0243 -0.011,0.006 0.0151,-0.008 0.0367,-0.0196 z m 0.007,-0.005 c 0.008,-0.004 0.0148,-0.008 0.0217,-0.0119 0.15158,-0.10582 0.0768,-0.0554 -0.0217,0.0119 z" /></clipPath><clipPath
       clipPathUnits="userSpaceOnUse"
       id="clipPath45"><path
         id="path46"
         style="fill:#ff0000;fill-opacity:1;fill-rule:nonzero;stroke:none;stroke-width:0.264583"
         d="m 86.886169,105.29642 v 25.17779 h 31.157271 v -13.01833 c -1.33192,0.0801 -2.97297,-0.49317 -4.6576,-2.01383 -0.20108,-0.18151 -0.40339,-0.36151 -0.60668,-0.54054 -0.34566,-0.32276 -0.68327,-0.6545 -1.01906,-0.98753 -0.26076,-0.26409 -0.52017,-0.52908 -0.77928,-0.79479 -0.27582,-0.27935 -0.55331,-0.55744 -0.81752,-0.84801 -0.31731,-0.33736 -0.63154,-0.67712 -0.94671,-1.01647 -0.21727,-0.24359 -0.46125,-0.46234 -0.67748,-0.70694 -0.18444,-0.17576 -0.38121,-0.33806 -0.58704,-0.48834 -0.32407,-0.25349 -0.71483,-0.40624 -1.05472,-0.63562 -0.57121,-0.35939 -1.12579,-0.74646 -1.59938,-1.23145 -0.49013,-0.48632 -0.96875,-0.98458 -1.41594,-1.51102 -0.37905,-0.45242 -0.75379,-0.9098 -1.10432,-1.38492 z m 29.139821,0 c 0.46073,0.53318 0.91712,1.07013 1.38493,1.5968 0.21023,0.23266 0.42074,0.46463 0.63252,0.69556 v -2.29236 z m 2.0159,3.85506 c -10e-4,1.3e-4 -0.003,2.7e-4 -0.004,5.3e-4 0.002,0.002 0.004,0.004 0.006,0.006 v -0.004 c -5.3e-4,-7.9e-4 -0.001,-0.002 -0.002,-0.003 z" /></clipPath></defs><g
     inkscape:label="Layer 1"
     inkscape:groupmode="layer"
     id="layer1"
     transform="translate(-45.570073,-86.167163)"><text
       xml:space="preserve"
       style="font-size:50.8px;font-family:'Cascadia Mono';-inkscape-font-specification:'Cascadia Mono';text-align:start;writing-mode:lr-tb;direction:ltr;text-anchor:start;fill:#1a1a1a;stroke:#000000;stroke-width:0;stroke-opacity:0"
       x="73.891373"
       y="-74.814941"
       id="text20"
       transform="rotate(89.938433)"
       inkscape:label="top-head"><tspan
         sodipodi:role="line"
         id="tspan20"
         style="stroke-width:0"
         x="73.891373"
         y="-74.814941">|</tspan></text><text
       xml:space="preserve"
       style="font-size:43.5219px;font-family:'Cascadia Mono';-inkscape-font-specification:'Cascadia Mono';text-align:start;writing-mode:lr-tb;direction:ltr;text-anchor:start;fill:#1a1a1a;stroke:#000000;stroke-width:0;stroke-opacity:0"
       x="85.272232"
       y="140.86003"
       id="text21"
       transform="scale(1.1764007,0.8500505)"
       inkscape:label="back-head"><tspan
         sodipodi:role="line"
         id="tspan21"
         style="stroke-width:0"
         x="85.272232"
         y="140.86003">|</tspan></text><text
       xml:space="preserve"
       style="font-size:35.819px;font-family:'Cascadia Mono';-inkscape-font-specification:'Cascadia Mono';text-align:start;writing-mode:lr-tb;direction:ltr;text-anchor:start;fill:#1a1a1a;stroke:#000000;stroke-width:0;stroke-opacity:0"
       x="-92.564117"
       y="195.95592"
       id="text21-03"
       transform="matrix(0.22267475,-1.1091405,0.85941011,0.21014245,0,0)"
       inkscape:label="back-feathers"><tspan
         sodipodi:role="line"
         id="tspan21-8"
         style="stroke-width:0"
         x="-92.564117"
         y="195.95592">|</tspan></text><text
       xml:space="preserve"
       style="font-size:59.0549px;font-family:'Cascadia Mono';-inkscape-font-specification:'Cascadia Mono';text-align:start;writing-mode:lr-tb;direction:ltr;text-anchor:start;fill:#1a1a1a;stroke:#000000;stroke-width:0;stroke-opacity:0"
       x="213.55283"
       y="14.27543"
       id="text21-8"
       transform="matrix(0.51940555,0.68570241,-0.92666254,0.70192792,0,0)"
       inkscape:label="bottom-right"><tspan
         sodipodi:role="line"
         id="tspan21-1"
         style="stroke-width:0"
         x="213.55283"
         y="14.27543">|</tspan></text><text
       xml:space="preserve"
       style="font-size:32.8203px;font-family:'Cascadia Mono';-inkscape-font-specification:'Cascadia Mono';text-align:start;writing-mode:lr-tb;direction:ltr;text-anchor:start;fill:#1a1a1a;stroke:#000000;stroke-width:0;stroke-opacity:0"
       x="35.427032"
       y="162.47173"
       id="text21-0"
       transform="scale(1.5478192,0.64607029)"
       inkscape:label="front-head"><tspan
         sodipodi:role="line"
         id="tspan21-6"
         style="stroke-width:0"
         x="35.427032"
         y="162.47173">|</tspan></text><text
       xml:space="preserve"
       style="font-size:32.2282px;font-family:'Cascadia Mono';-inkscape-font-specification:'Cascadia Mono';text-align:start;writing-mode:lr-tb;direction:ltr;text-anchor:start;fill:#1a1a1a;stroke:#000000;stroke-width:0;stroke-opacity:0"
       x="35.997791"
       y="230.77008"
       id="text21-0-6"
       transform="scale(1.5762597,0.63441322)"
       inkscape:label="front-chest"><tspan
         sodipodi:role="line"
         id="tspan21-6-1"
         style="stroke-width:0"
         x="35.997791"
         y="230.77008">|</tspan></text><text
       xml:space="preserve"
       style="font-size:45.8059px;font-family:'Cascadia Mono';-inkscape-font-specification:'Cascadia Mono';text-align:start;writing-mode:lr-tb;direction:ltr;text-anchor:start;fill:#1a1a1a;stroke:#000000;stroke-width:0;stroke-opacity:0"
       x="-70.559143"
       y="207.91998"
       id="text21-0-6-7"
       transform="matrix(0.75013056,-0.82539331,0.67196029,0.59372128,0,0)"
       inkscape:label="bottom-left"><tspan
         sodipodi:role="line"
         id="tspan21-6-1-3"
         style="stroke-width:0"
         x="-70.559143"
         y="207.91998">|</tspan></text><text
       xml:space="preserve"
       style="font-size:37.3269px;font-family:'Cascadia Mono';-inkscape-font-specification:'Cascadia Mono';text-align:start;writing-mode:lr-tb;direction:ltr;text-anchor:start;fill:#1a1a1a;stroke:#000000;stroke-width:0;stroke-opacity:0"
       x="85.774193"
       y="-5.1933007"
       id="text21-0-9"
       transform="matrix(0.4834674,1.2359441,-0.66729213,0.36251507,0,0)"
       inkscape:label="front-beak"><tspan
         sodipodi:role="line"
         id="tspan21-6-6"
         style="stroke-width:0"
         x="85.774193"
         y="-5.1933007">|</tspan></text><text
       xml:space="preserve"
       style="font-size:51.4929px;font-family:'Cascadia Mono';-inkscape-font-specification:'Cascadia Mono';text-align:start;writing-mode:lr-tb;direction:ltr;text-anchor:start;fill:#1a1a1a;stroke:#000000;stroke-width:0;stroke-opacity:0"
       x="-136.26398"
       y="89.535812"
       id="text21-0-9-2"
       transform="matrix(-0.00564049,-0.98653915,1.0136376,-0.00121169,0,0)"
       inkscape:label="bottom-upper-beak"><tspan
         sodipodi:role="line"
         id="tspan21-6-6-9"
         style="stroke-width:0"
         x="-136.26398"
         y="89.535812">|</tspan></text><text
       xml:space="preserve"
       style="font-size:41.5463px;font-family:'Cascadia Mono';-inkscape-font-specification:'Cascadia Mono';text-align:start;writing-mode:lr-tb;direction:ltr;text-anchor:start;fill:#1a1a1a;stroke:#000000;stroke-width:0;stroke-opacity:0"
       x="-63.887791"
       y="169.88423"
       id="text21-0-9-2-8"
       transform="matrix(0.52834974,-1.124439,0.72551554,0.34863654,0,0)"
       inkscape:label="top-upper-mouth"><tspan
         sodipodi:role="line"
         id="tspan21-6-6-9-4"
         style="stroke-width:0"
         x="-63.887791"
         y="169.88423">|</tspan></text><text
       xml:space="preserve"
       style="font-size:53.7157px;font-family:'Cascadia Mono';-inkscape-font-specification:'Cascadia Mono';text-align:start;writing-mode:lr-tb;direction:ltr;text-anchor:start;fill:#1a1a1a;stroke:#000000;stroke-width:0;stroke-opacity:0"
       x="90.241486"
       y="80.002388"
       id="text23-3"
       transform="scale(0.76489997,1.3073605)"
       inkscape:label="eye-1"><tspan
         sodipodi:role="line"
         id="tspan23-7"
         style="stroke-width:0"
         x="90.241486"
         y="80.002388">.</tspan></text><text
       xml:space="preserve"
       style="font-size:53.7157px;font-family:'Cascadia Mono';-inkscape-font-specification:'Cascadia Mono';text-align:start;writing-mode:lr-tb;direction:ltr;text-anchor:start;fill:#1a1a1a;stroke:#000000;stroke-width:0;stroke-opacity:0"
       x="109.92724"
       y="84.09201"
       id="text23-3-8"
       transform="scale(0.76489997,1.3073605)"
       inkscape:label="eye-2"><tspan
         sodipodi:role="line"
         id="tspan23-7-8"
         style="stroke-width:0"
         x="109.92724"
         y="84.09201">.</tspan></text><text
       xml:space="preserve"
       style="font-size:50.8px;font-family:'Cascadia Mono';-inkscape-font-specification:'Cascadia Mono';text-align:start;writing-mode:lr-tb;direction:ltr;text-anchor:start;fill:#1a1a1a;stroke:#000000;stroke-width:0;stroke-opacity:0"
       x="61.143936"
       y="123.84767"
       id="text24"><tspan
         sodipodi:role="line"
         id="tspan24"
         style="stroke-width:0"
         x="61.143936"
         y="123.84767" /></text><text
       xml:space="preserve"
       style="font-size:42.1768px;font-family:'Cascadia Mono';-inkscape-font-specification:'Cascadia Mono';text-align:start;writing-mode:lr-tb;direction:ltr;text-anchor:start;fill:#1a1a1a;stroke:#000000;stroke-width:0;stroke-opacity:0"
       x="-184.17827"
       y="24.235929"
       id="text25"
       transform="matrix(-0.69638698,-0.71435449,0.77029475,-0.64581404,0,0)"
       inkscape:label="back-wing"><tspan
         sodipodi:role="line"
         id="tspan25"
         style="stroke-width:0"
         x="-184.17827"
         y="24.235929">v</tspan></text><text
       xml:space="preserve"
       style="font-size:53.5379px;font-family:'Cascadia Mono';-inkscape-font-specification:'Cascadia Mono';text-align:start;writing-mode:lr-tb;direction:ltr;text-anchor:start;fill:#1a1a1a;stroke:#000000;stroke-width:0;stroke-opacity:0"
       x="-189.08862"
       y="9.5185843"
       id="text25-0"
       transform="matrix(-0.67828215,-0.73342216,0.75026846,-0.66305221,0,0)"
       inkscape:label="front-wing"><tspan
         sodipodi:role="line"
         id="tspan25-3"
         style="stroke-width:0"
         x="-189.08862"
         y="9.5185843">v</tspan></text><text
       xml:space="preserve"
       style="font-size:28.1213px;font-family:'Cascadia Mono';-inkscape-font-specification:'Cascadia Mono';text-align:start;writing-mode:lr-tb;direction:ltr;text-anchor:start;fill:#1a1a1a;stroke:#000000;stroke-width:0;stroke-opacity:0"
       x="41.915726"
       y="322.37033"
       id="text47"
       transform="scale(1.8064637,0.55356772)"
       inkscape:label="left-leg"><tspan
         sodipodi:role="line"
         id="tspan47"
         style="font-size:28.1213px;stroke-width:0"
         x="41.915726"
         y="322.37033">|</tspan></text><text
       xml:space="preserve"
       style="font-size:19.0081px;font-family:'Cascadia Mono';-inkscape-font-specification:'Cascadia Mono';text-align:start;writing-mode:lr-tb;direction:ltr;text-anchor:start;fill:#1a1a1a;stroke:#000000;stroke-width:0;stroke-opacity:0"
       x="61.111656"
       y="-232.07835"
       id="text47-9"
       transform="matrix(-4.2409012e-4,2.6725523,-0.3741741,-3.8336986e-4,0,0)"
       inkscape:label="left-foot"><tspan
         sodipodi:role="line"
         id="tspan47-8"
         style="font-size:19.0081px;stroke-width:0"
         x="61.111656"
         y="-232.07835">|</tspan></text><text
       xml:space="preserve"
       style="font-size:28.0505px;font-family:'Cascadia Mono';-inkscape-font-specification:'Cascadia Mono';text-align:start;writing-mode:lr-tb;direction:ltr;text-anchor:start;fill:#1a1a1a;stroke:#000000;stroke-width:0;stroke-opacity:0"
       x="52.891441"
       y="323.10669"
       id="text47-82"
       transform="scale(1.8110238,0.55217385)"
       inkscape:label="right-leg"><tspan
         sodipodi:role="line"
         id="tspan47-89"
         style="font-size:28.0505px;stroke-width:0"
         x="52.891441"
         y="323.10669">|</tspan></text><text
       xml:space="preserve"
       style="font-size:19.0081px;font-family:'Cascadia Mono';-inkscape-font-specification:'Cascadia Mono';text-align:start;writing-mode:lr-tb;direction:ltr;text-anchor:start;fill:#1a1a1a;stroke:#000000;stroke-width:0;stroke-opacity:0"
       x="61.095745"
       y="-284.87851"
       id="text47-9-0"
       transform="matrix(-4.2409012e-4,2.6725523,-0.3741741,-3.8336986e-4,0,0)"
       inkscape:label="left-foot"><tspan
         sodipodi:role="line"
         id="tspan47-8-7"
         style="font-size:19.0081px;stroke-width:0"
         x="61.095745"
         y="-284.87851">|</tspan></text><text
       xml:space="preserve"
       style="font-size:30.5501px;font-family:'Cascadia Mono';-inkscape-font-specification:'Cascadia Mono';text-align:start;writing-mode:lr-tb;direction:ltr;text-anchor:start;fill:#1a1a1a;stroke:#000000;stroke-width:0;stroke-opacity:0"
       x="75.346649"
       y="59.482391"
       id="text47-8"
       transform="matrix(1.0035517,1.2107452,-0.40944647,0.50247999,0,0)"
       inkscape:label="top-lower-beak"><tspan
         sodipodi:role="line"
         id="tspan47-3"
         style="font-size:30.5501px;stroke-width:0"
         x="75.346649"
         y="59.482391">|</tspan></text><text
       xml:space="preserve"
       style="font-size:40.3839px;font-family:'Cascadia Mono';-inkscape-font-specification:'Cascadia Mono';text-align:start;writing-mode:lr-tb;direction:ltr;text-anchor:start;fill:#1a1a1a;stroke:#000000;stroke-width:0;stroke-opacity:0"
       x="108.66682"
       y="1.4034618"
       id="text47-8-0"
       transform="matrix(0.53399149,1.08914,-0.74174862,0.35980326,0,0)"
       inkscape:label="bottom-lower-beak"><tspan
         sodipodi:role="line"
         id="tspan47-3-7"
         style="font-size:40.3839px;stroke-width:0"
         x="108.66682"
         y="1.4034618">|</tspan></text></g></svg>
