<?xml version="1.0" encoding="UTF-8" standalone="no"?>
<!-- Created with Inkscape (http://www.inkscape.org/) -->

<svg
   width="210mm"
   height="297mm"
   viewBox="0 0 210 297"
   version="1.1"
   id="svg1"
   xmlns="http://www.w3.org/2000/svg"
   xmlns:svg="http://www.w3.org/2000/svg">
  <defs
     id="defs1" />
  <g
     id="layer1"
     style="fill:#ffffff;fill-opacity:1;stroke-width:0.993021;stroke-dasharray:none">
    <path
       d="m 120.06148,114.05811 c 0,7.34389 -0.91014,14.24839 -2.73042,20.71352 -1.82028,6.46513 -4.58208,12.30257 -8.28541,17.51234 -3.64055,5.14699 -8.22263,9.60354 -13.746241,13.36963 -5.460836,3.76609 -11.863196,6.68482 -19.207079,8.75617 -4.205471,1.19259 -8.756168,2.03996 -13.65209,2.54211 -4.895922,0.43938 -10.199837,0.65907 -15.911746,0.65907 H 20.869005 a 2.8686723,2.8686723 45 0 1 -2.868672,-2.86867 V 54.920894 a 3.2857874,3.2857874 135 0 1 3.285787,-3.285787 h 25.524831 c 5.711909,0 11.015824,0.251073 15.911746,0.753219 4.895922,0.439378 9.446619,1.255365 13.65209,2.447961 7.343883,2.071352 13.746243,4.958691 19.207079,8.662016 5.523604,3.703325 10.074304,8.097101 13.652094,13.181328 3.64055,5.021459 6.33959,10.701984 8.0971,17.041575 1.82028,6.276823 2.73042,13.055794 2.73042,20.336904 z m -16.19421,0 c 0,-12.11427 -2.63627,-21.937494 -7.908795,-29.469681 C 90.685944,77.056241 83.122372,71.720941 73.26776,68.58253 69.501666,67.389933 65.296195,66.573946 60.651346,66.134569 56.006497,65.695191 50.765349,65.475502 44.927904,65.475502 H 33.347165 v 98.295048 h 11.580739 c 5.837445,0 11.078593,-0.21969 15.723442,-0.65906 4.644849,-0.43938 8.85032,-1.25537 12.616414,-2.44797 9.854612,-3.13841 17.418184,-8.63063 22.690715,-16.47666 5.272525,-7.84603 7.908795,-17.88894 7.908795,-30.12875 z"
       id="text1"
       style="font-size:192.824px;font-family:Corbel;-inkscape-font-specification:Corbel;fill:#000000;fill-opacity:1;stroke:#000000;stroke-width:1.01293;stroke-dasharray:none;stroke-opacity:0"
       transform="matrix(0.00143642,0.87513222,-1.0982022,0.00166447,235.90976,55.869312)"
       aria-label="D" />
  </g>
  <g
     id="layer3">
    <path
       style="fill:#000000;fill-opacity:1;stroke:#000000;stroke-width:0.565029;stroke-dasharray:none;stroke-opacity:0"
       id="rect5"
       width="83.718559"
       height="11.714884"
       x="80.861267"
       y="38.573395"
       ry="1.4478357"
       transform="matrix(0.00175272,1.0024643,-1.2244561,0.0017422,225.29023,27.830335)"
       rx="1.3210552"
       d="m 82.182322,38.573395 h 81.076448 c 0.73187,0 1.32106,0.645734 1.32106,1.447835 v 8.819213 c 0,0.802101 -0.58919,1.447836 -1.32106,1.447836 H 82.182322 c -0.731864,0 -1.321055,-0.645735 -1.321055,-1.447836 V 40.02123 c 0,-0.802101 0.589191,-1.447835 1.321055,-1.447835 z" />
    <path
       style="fill:#000000;fill-opacity:1;stroke:#000000;stroke-width:0.565029;stroke-dasharray:none;stroke-opacity:0"
       id="rect5-1"
       width="83.718559"
       height="11.714884"
       x="80.861267"
       y="38.573395"
       ry="1.1429155"
       transform="matrix(0.00184676,1.0604259,-1.2199105,0.0017426,102.8494,18.286523)"
       d="m 82.004183,38.573395 h 81.432727 c 0.63318,0 1.14292,0.50974 1.14292,1.142915 v 9.429053 c 0,0.633175 -0.50974,1.142916 -1.14292,1.142916 H 82.004183 c -0.633176,0 -1.142916,-0.509741 -1.142916,-1.142916 V 39.71631 c 0,-0.633175 0.50974,-1.142915 1.142916,-1.142915 z" />
    <path
       style="fill:#000000;fill-opacity:1;stroke:#000000;stroke-width:0.565029;stroke-dasharray:none;stroke-opacity:0"
       id="rect5-2-1"
       width="83.718559"
       height="11.714884"
       x="80.861267"
       y="38.573395"
       d="m 82.871403,38.573395 h 79.698287 c 1.11362,0 2.01014,0.567508 2.01014,1.272441 v 9.170002 c 0,0.704932 -0.89652,1.272441 -2.01014,1.272441 H 82.871403 c -1.113615,0 -2.010136,-0.567509 -2.010136,-1.272441 v -9.170002 c 0,-0.704933 0.896521,-1.272441 2.010136,-1.272441 z"
       ry="1.2724409"
       transform="matrix(0.0010278,0.59055707,-1.2229729,0.0017481,163.23809,111.07064)"
       rx="2.0101357" />
  </g>
</svg>
